<svg width="38" height="39" viewBox="0 0 38 39" fill="none" xmlns="http://www.w3.org/2000/svg">
<path d="M0.0999756 0.120117V1.11529V17.078H16.9009V0.120117H0.0999756ZM21.1016 0.120117V1.11529V17.078H37.9V0.120117H21.1016ZM2.07775 2.11368H14.923V15.0845H2.07775V2.11368ZM23.077 2.11368H35.9246V15.0845H23.077V2.11368ZM0.0999756 21.3199V22.3183V38.281H16.9009V21.3199H0.0999756ZM29.5007 21.3199C24.8731 21.3199 21.1016 25.1275 21.1016 29.7988C21.1016 34.4702 24.8731 38.281 29.5007 38.281C34.1282 38.281 37.9 34.4702 37.9 29.7988C37.9 25.1275 34.1282 21.3199 29.5007 21.3199ZM2.07775 23.3166H14.923V36.2842H2.07775V23.3166ZM29.5007 23.3166C33.0602 23.3166 35.9246 26.206 35.9246 29.7988C35.9246 33.3917 33.0602 36.2842 29.5007 36.2842C25.9414 36.2842 23.077 33.3917 23.077 29.7988C23.077 26.206 25.9414 23.3166 29.5007 23.3166Z" fill="black"/>
</svg>
